<?xml version="1.0" encoding="utf-8"?>
<!-- Generator: Adobe Illustrator 18.0.0, SVG Export Plug-In . SVG Version: 6.00 Build 0)  -->
<!DOCTYPE svg PUBLIC "-//W3C//DTD SVG 1.1//EN" "http://www.w3.org/Graphics/SVG/1.1/DTD/svg11.dtd">
<svg version="1.1" xmlns="http://www.w3.org/2000/svg" xmlns:xlink="http://www.w3.org/1999/xlink" x="0px" y="0px"
	 viewBox="0 0 1000 800" enable-background="new 0 0 1000 800" xml:space="preserve">
<g id="Layer_2">
</g>
<g id="Layer_3">
	<g id="XMLID_927_">
		<linearGradient id="XMLID_6_" gradientUnits="userSpaceOnUse" x1="285.543" y1="297.6021" x2="510.4632" y2="297.6021">
			<stop  offset="0.2513" style="stop-color:#000416"/>
			<stop  offset="0.5759" style="stop-color:#00304E"/>
		</linearGradient>
		<path id="XMLID_941_" fill="url(#XMLID_6_)" d="M411.8,342.6c0,0,54.4,12.7,81.2-14.6c23.5-24,26.2-53.3-10.2-119.4
			c-30.3-55.1-31.5-91.9-31.5-91.9c-12.4,50.7,61.1,158.3,35.9,190.4c-0.4,0.5-0.8,1-1.2,1.5c-24.6,29.7-72.7,18.3-82.2-19.1
			C384.1,211,412.5,142.4,439.5,99c-88.6,23.6-153.9,104.5-153.9,200.6c0,46.6,15.3,89.6,41.2,124.2c6.8,45,25.5,72.4,25.5,72.4l0,0
			C320.4,387.9,411.8,342.6,411.8,342.6z"/>
		<linearGradient id="XMLID_7_" gradientUnits="userSpaceOnUse" x1="375.5273" y1="278" x2="714.457" y2="278">
			<stop  offset="0.2513" style="stop-color:#000416"/>
			<stop  offset="0.5759" style="stop-color:#00304E"/>
		</linearGradient>
		<path id="XMLID_949_" fill="url(#XMLID_7_)" d="M612.9,277.8c0,0-42-39.2-76.6-5.9l-2.4,15.9c-1.7,11.5-6.8,22.2-14.6,30.8
			c-0.1,0.1-0.2,0.2-0.3,0.4c0,0,13.8-33.3,7.5-61.2c0,0,7.4-16.9,30.8-20.5c15-2.3,28.3,6.7,37.2,15.2c8.7,8.2,19.7,13.7,31.5,15.1
			c22.9,2.9,60.9,10.7,88.4,32.1l0,0c0,0-5.5-7.6-14.4-15.7c-6.5-86.8-66.4-158.8-147-183l-6.3-52v0L521,238.8
			c-16.9-42.6-36.1-88-36.1-88c1.4-21.4,11-41.6,22.3-58.3c-4.7-0.3-9.4-0.5-14.1-0.5c-4.3,0-8.6,0.1-12.8,0.4
			c-5.2-22.3-3.3-42.3-3.3-42.3l0,0c-26.2,64.3,13.3,124.3,38.2,184.6c24.9,60.4-7.1,95.9-7.1,95.9c4.7-2.2,8.9-5.6,12.5-9.3
			c8.6-8.9,14.1-20.3,16.1-32.5l2.1-12.7c24.9-29.3,68.3,2.7,68.3,2.7s-40.8-15.9-75.2,46.1c-29.4,53-91.2,40.4-91.2,40.4
			s6.2,16,2.2,31.5c-4,15.5-13.3,15.1-13.3,15.1c-3.6-13.3-1.3-52.8-1.3-52.8c-6.2,15.1-3.1,44.8-4.4,62.1
			c-1.3,17.3-14.2,19.5-14.2,19.5c-10.2-40.4,5.3-79.9,5.3-79.9c-22.6,33.3-6.7,72.3-10.2,88.3c-3.6,16-20,17.3-20,17.3
			c-10.7-55.9,12.4-94.1,12.4-94.1c-26.5,33.4-20.1,75.7-21.6,98.3c33.4,23,73.9,36.5,117.6,36.5c114.6,0,207.6-92.9,207.6-207.6
			c0-2,0-3.9-0.1-5.9C678.9,285.2,637,270.9,612.9,277.8z M561.1,310.1c-13.8,30.2-44.7,80.7-113.2,61.8c0,0,61.2,12.2,90.8-44.5
			c26.7-51.3,52.9-46.4,64-45.5C602.7,281.8,573.3,283.5,561.1,310.1z"/>
	</g>
	<linearGradient id="SVGID_1_" gradientUnits="userSpaceOnUse" x1="829.2334" y1="524.584" x2="829.2334" y2="524.584">
		<stop  offset="0.1099" style="stop-color:#EC1C24"/>
		<stop  offset="0.1401" style="stop-color:#DC1F30"/>
		<stop  offset="0.2871" style="stop-color:#922E68"/>
		<stop  offset="0.3924" style="stop-color:#64378B"/>
		<stop  offset="0.445" style="stop-color:#523A98"/>
		<stop  offset="0.5061" style="stop-color:#513D9A"/>
		<stop  offset="0.5599" style="stop-color:#4D489F"/>
		<stop  offset="0.6108" style="stop-color:#465AA7"/>
		<stop  offset="0.66" style="stop-color:#3C74B3"/>
		<stop  offset="0.7076" style="stop-color:#3094C1"/>
		<stop  offset="0.7382" style="stop-color:#26ADCD"/>
	</linearGradient>
	<path fill="url(#SVGID_1_)" stroke="#000000" stroke-width="6" stroke-miterlimit="10" d="M829.2,524.6"/>
	<linearGradient id="SVGID_2_" gradientUnits="userSpaceOnUse" x1="170.7661" y1="524.584" x2="170.7661" y2="524.584">
		<stop  offset="0.1099" style="stop-color:#EC1C24"/>
		<stop  offset="0.1401" style="stop-color:#DC1F30"/>
		<stop  offset="0.2871" style="stop-color:#922E68"/>
		<stop  offset="0.3924" style="stop-color:#64378B"/>
		<stop  offset="0.445" style="stop-color:#523A98"/>
		<stop  offset="0.5061" style="stop-color:#513D9A"/>
		<stop  offset="0.5599" style="stop-color:#4D489F"/>
		<stop  offset="0.6108" style="stop-color:#465AA7"/>
		<stop  offset="0.66" style="stop-color:#3C74B3"/>
		<stop  offset="0.7076" style="stop-color:#3094C1"/>
		<stop  offset="0.7382" style="stop-color:#26ADCD"/>
	</linearGradient>
	<path fill="url(#SVGID_2_)" stroke="#000000" stroke-width="6" stroke-miterlimit="10" d="M170.8,524.6"/>
	<text transform="matrix(1 0 0 1 320.0996 614.5801)" fill="#252525" font-family="'Moon2.0-Regular'" font-size="97">KOLIBRIE</text>
	<line fill="#252525" stroke="#000000" stroke-width="7" stroke-miterlimit="10" x1="221.6" y1="578.6" x2="316.1" y2="578.6"/>
	<line fill="#252525" stroke="#000000" stroke-width="7" stroke-miterlimit="10" x1="676.5" y1="578.6" x2="770.9" y2="578.6"/>
	<text transform="matrix(1 0 0 1 257.0986 653.5781)" font-family="'Moon2.0-Regular'" font-size="31">THE FASTEST AT YOUR SERVICE</text>
</g>
</svg>
