<?xml version="1.0" encoding="utf-8"?>
<!-- Generator: Adobe Illustrator 16.0.3, SVG Export Plug-In . SVG Version: 6.00 Build 0)  -->
<!DOCTYPE svg PUBLIC "-//W3C//DTD SVG 1.1//EN" "http://www.w3.org/Graphics/SVG/1.1/DTD/svg11.dtd">
<svg version="1.1" xmlns="http://www.w3.org/2000/svg" xmlns:xlink="http://www.w3.org/1999/xlink" x="0px" y="0px" width="1000px"
	 height="800px" viewBox="0 0 1000 800" enable-background="new 0 0 1000 800" xml:space="preserve">
<g id="Layer_2">
</g>
<g id="Layer_3">
	<g id="XMLID_927_">
		<linearGradient id="XMLID_6_" gradientUnits="userSpaceOnUse" x1="239.9248" y1="374.291" x2="512.6895" y2="374.291">
			<stop  offset="0.2513" style="stop-color:#000416"/>
			<stop  offset="0.5759" style="stop-color:#00304E"/>
		</linearGradient>
		<path id="XMLID_941_" fill="url(#XMLID_6_)" d="M393.038,428.875c0,0,65.912,15.43,98.487-17.76
			c28.523-29.061,31.752-64.581-12.379-144.77c-36.758-66.792-38.21-111.403-38.21-111.403
			c-15.09,61.461,74.125,191.923,43.591,230.878c-0.486,0.622-0.979,1.233-1.475,1.832c-29.802,35.995-88.207,22.197-99.635-23.113
			c-24.016-95.221,10.453-178.408,43.188-231.043c-107.494,28.67-186.679,126.695-186.679,243.223
			c0,56.482,18.604,108.62,50.016,150.618c8.281,54.548,30.98,87.748,30.98,87.748l0,0
			C282.172,483.77,393.038,428.875,393.038,428.875z"/>
		<linearGradient id="XMLID_7_" gradientUnits="userSpaceOnUse" x1="349.0503" y1="350.519" x2="760.0752" y2="350.519">
			<stop  offset="0.2513" style="stop-color:#000416"/>
			<stop  offset="0.5759" style="stop-color:#00304E"/>
		</linearGradient>
		<path id="XMLID_949_" fill="url(#XMLID_7_)" d="M636.899,350.234c0,0-50.926-47.562-92.903-7.198l-2.896,19.3
			c-2.088,13.917-8.201,26.939-17.701,37.32c-0.131,0.142-0.261,0.284-0.393,0.427c0,0,16.684-40.363,9.148-74.269
			c0,0,9.006-20.479,37.336-24.824c18.146-2.783,34.307,8.087,45.151,18.395c10.515,9.994,23.831,16.568,38.226,18.367
			c27.771,3.472,73.854,12.979,107.205,38.919l0.002,0.001c0,0-6.729-9.202-17.431-19.01
			c-7.883-105.315-80.572-192.55-178.308-221.986l-7.693-63.075v0l-31.215,230.34c-20.469-51.668-43.727-106.694-43.727-106.694
			c1.674-25.963,13.391-50.437,27.079-70.653c-5.665-0.385-11.378-0.592-17.14-0.592c-5.217,0-10.392,0.177-15.529,0.491
			c-6.305-27.046-3.963-51.277-3.963-51.277v0c-31.752,78.036,16.146,150.689,46.283,223.881
			c30.137,73.192-8.61,116.248-8.61,116.248c5.751-2.726,10.822-6.813,15.14-11.279c10.418-10.781,17.043-24.665,19.465-39.461
			l2.529-15.456c30.139-35.521,82.88,3.228,82.88,3.228s-49.428-19.314-91.21,55.893c-35.675,64.219-110.607,49.052-110.607,49.052
			s7.535,19.375,2.691,38.211s-16.146,18.298-16.146,18.298c-4.306-16.146-1.615-64.043-1.615-64.043
			c-7.534,18.298-3.767,54.356-5.381,75.346c-1.615,20.987-17.222,23.679-17.222,23.679c-12.378-48.975,6.458-96.871,6.458-96.871
			c-27.447,40.362-8.072,87.723-12.377,107.096c-4.306,19.375-24.218,20.989-24.218,20.989
			c-12.917-67.81,15.069-114.093,15.069-114.093c-32.094,40.466-24.393,91.781-26.227,119.212
			c40.536,27.924,89.646,44.291,142.591,44.291c139.021,0,251.719-112.697,251.719-251.717c0-2.385-0.055-4.757-0.125-7.126
			C716.934,359.206,666.095,341.92,636.899,350.234z M574.134,389.45c-16.684,36.596-54.152,97.831-137.235,74.903
			c0,0,74.269,14.799,110.127-53.984c32.417-62.179,64.108-56.304,77.562-55.228C624.587,355.141,588.854,357.159,574.134,389.45z"
			/>
	</g>
	<linearGradient id="SVGID_1_" gradientUnits="userSpaceOnUse" x1="829.2334" y1="524.584" x2="829.2334" y2="524.584">
		<stop  offset="0.1099" style="stop-color:#EC1C24"/>
		<stop  offset="0.1401" style="stop-color:#DC1F30"/>
		<stop  offset="0.2871" style="stop-color:#922E68"/>
		<stop  offset="0.3924" style="stop-color:#64378B"/>
		<stop  offset="0.445" style="stop-color:#523A98"/>
		<stop  offset="0.5061" style="stop-color:#513D9A"/>
		<stop  offset="0.5599" style="stop-color:#4D489F"/>
		<stop  offset="0.6108" style="stop-color:#465AA7"/>
		<stop  offset="0.66" style="stop-color:#3C74B3"/>
		<stop  offset="0.7076" style="stop-color:#3094C1"/>
		<stop  offset="0.7382" style="stop-color:#26ADCD"/>
	</linearGradient>
	<path fill="url(#SVGID_1_)" stroke="#000000" stroke-width="6" stroke-miterlimit="10" d="M829.233,524.584"/>
	<linearGradient id="SVGID_2_" gradientUnits="userSpaceOnUse" x1="170.7661" y1="524.584" x2="170.7661" y2="524.584">
		<stop  offset="0.1099" style="stop-color:#EC1C24"/>
		<stop  offset="0.1401" style="stop-color:#DC1F30"/>
		<stop  offset="0.2871" style="stop-color:#922E68"/>
		<stop  offset="0.3924" style="stop-color:#64378B"/>
		<stop  offset="0.445" style="stop-color:#523A98"/>
		<stop  offset="0.5061" style="stop-color:#513D9A"/>
		<stop  offset="0.5599" style="stop-color:#4D489F"/>
		<stop  offset="0.6108" style="stop-color:#465AA7"/>
		<stop  offset="0.66" style="stop-color:#3C74B3"/>
		<stop  offset="0.7076" style="stop-color:#3094C1"/>
		<stop  offset="0.7382" style="stop-color:#26ADCD"/>
	</linearGradient>
	<path fill="url(#SVGID_2_)" stroke="#000000" stroke-width="6" stroke-miterlimit="10" d="M170.766,524.584"/>
</g>
</svg>
