<?xml version="1.0" encoding="UTF-8"?>
<svg xmlns="http://www.w3.org/2000/svg" xmlns:xlink="http://www.w3.org/1999/xlink" width="px" height="px" viewBox="0 0 1674 1875" version="1.1">
<g id="surface1">
<path style=" stroke:none;fill-rule:nonzero;fill:rgb(64.313725%,77.647059%,22.352941%);fill-opacity:1;" d="M 573.007812 1138.886719 C 637.640625 1138.886719 690.039062 1191.289062 690.039062 1255.921875 L 690.039062 1757.964844 C 690.039062 1822.601562 637.640625 1874.992188 573.007812 1874.992188 C 508.378906 1874.992188 455.980469 1822.601562 455.980469 1757.964844 L 455.980469 1255.921875 C 455.980469 1191.296875 508.378906 1138.898438 573.007812 1138.898438 Z M 573.007812 1138.886719 "/>
<path style=" stroke:none;fill-rule:nonzero;fill:rgb(64.313725%,77.647059%,22.352941%);fill-opacity:1;" d="M 305.828125 535.292969 C 305.441406 539.730469 305.105469 544.21875 305.105469 548.753906 L 305.105469 1309.398438 C 305.105469 1391.199219 369.855469 1457.101562 450.234375 1457.101562 L 1223.757812 1457.101562 C 1304.144531 1457.101562 1368.894531 1391.191406 1368.894531 1309.398438 L 1368.894531 548.753906 C 1368.894531 544.21875 1368.730469 539.714844 1368.351562 535.292969 Z M 305.828125 535.292969 "/>
<path style=" stroke:none;fill-rule:nonzero;fill:rgb(64.313725%,77.647059%,22.352941%);fill-opacity:1;" d="M 1101.003906 1138.886719 C 1165.636719 1138.886719 1218.035156 1191.289062 1218.035156 1255.921875 L 1218.035156 1757.964844 C 1218.035156 1822.601562 1165.636719 1874.992188 1101.003906 1874.992188 C 1036.375 1874.992188 983.976562 1822.601562 983.976562 1757.964844 L 983.976562 1255.921875 C 983.976562 1191.296875 1036.375 1138.898438 1101.003906 1138.898438 Z M 117.066406 602.988281 C 181.691406 602.988281 234.089844 655.386719 234.089844 720.019531 L 234.089844 1222.0625 C 234.089844 1286.699219 181.691406 1339.097656 117.066406 1339.097656 C 52.429688 1339.097656 0.03125 1286.699219 0.03125 1222.070312 L 0.03125 720.027344 C 0.0234375 655.394531 52.421875 602.988281 117.066406 602.988281 Z M 1556.949219 602.988281 C 1621.578125 602.988281 1673.976562 655.386719 1673.976562 720.019531 L 1673.976562 1222.0625 C 1673.976562 1286.699219 1621.578125 1339.097656 1556.949219 1339.097656 C 1492.316406 1339.097656 1439.917969 1286.699219 1439.917969 1222.070312 L 1439.917969 720.027344 C 1439.917969 655.394531 1492.316406 602.988281 1556.949219 602.988281 Z M 309.246094 485.328125 C 312.5 251.6875 516.425781 60.125 778.1875 34.878906 L 895.804688 34.878906 C 1157.582031 60.132812 1361.492188 251.703125 1364.746094 485.328125 Z M 309.246094 485.328125 "/>
<path style="fill:none;stroke-width:3;stroke-linecap:round;stroke-linejoin:round;stroke:rgb(64.313725%,77.647059%,22.352941%);stroke-opacity:1;stroke-miterlimit:4;" d="M 74.742862 70.009119 L 89.764968 96.028771 M 193.276039 70.009119 L 178.252983 96.028771 " transform="matrix(8.218097,0,0,8.218097,-264.294898,-563.013631)"/>
<path style=" stroke:none;fill-rule:nonzero;fill:rgb(100%,100%,100%);fill-opacity:1;" d="M 679.785156 275.949219 C 679.882812 308.605469 652.851562 335.160156 619.40625 335.25 C 585.972656 335.332031 558.789062 308.933594 558.691406 276.277344 L 558.691406 275.949219 C 558.601562 243.28125 585.628906 216.734375 619.070312 216.644531 C 652.5 216.554688 679.683594 242.945312 679.785156 275.617188 Z M 1131.746094 275.949219 C 1131.84375 308.605469 1104.816406 335.160156 1071.367188 335.25 C 1037.9375 335.332031 1010.75 308.933594 1010.652344 276.277344 L 1010.652344 275.949219 C 1010.5625 243.28125 1037.589844 216.734375 1071.03125 216.644531 C 1104.460938 216.554688 1131.648438 242.945312 1131.746094 275.617188 Z M 1131.746094 275.949219 "/>
</g>
</svg>
