<?xml version="1.0" encoding="utf-8"?>
<!-- Generator: Adobe Illustrator 18.0.0, SVG Export Plug-In . SVG Version: 6.00 Build 0)  -->
<!DOCTYPE svg PUBLIC "-//W3C//DTD SVG 1.1//EN" "http://www.w3.org/Graphics/SVG/1.1/DTD/svg11.dtd">
<svg version="1.1" xmlns="http://www.w3.org/2000/svg" xmlns:xlink="http://www.w3.org/1999/xlink" x="0px" y="0px"
	 viewBox="0 0 492 492" enable-background="new 0 0 492 492" xml:space="preserve">
<g id="Master_Layer_6">
</g>
<g id="Layer_1">
	<g>
		<path d="M386.3,197.6c0-3.2-2.6-5.8-5.8-5.8c-3.2,0-5.8,2.6-5.8,5.8v182.9c0,5.5-2.3,10.6-5.9,14.2c-3.7,3.7-8.7,5.9-14.2,5.9
			H242.7v-97.8c0-4.3-1.7-8.2-4.6-11c-2.8-2.8-6.7-4.6-11-4.6h-59c-4.3,0-8.2,1.7-11,4.6c-2.8,2.8-4.6,6.7-4.6,11v97.8h-14.6
			c-5.5,0-10.6-2.3-14.2-5.9c-3.7-3.7-5.9-8.7-5.9-14.2V197.6c0-3.2-2.6-5.8-5.8-5.8c-3.2,0-5.8,2.6-5.8,5.8v182.9
			c0,8.7,3.6,16.6,9.3,22.4c5.7,5.7,13.7,9.3,22.4,9.3h20.4c3.2,0,5.8-2.6,5.8-5.8V302.9c0-1.1,0.5-2.1,1.2-2.8
			c0.7-0.7,1.7-1.2,2.8-1.2h59c1.1,0,2.1,0.5,2.8,1.2c0.7,0.7,1.2,1.7,1.2,2.8v103.6c0,3.2,2.6,5.8,5.8,5.8h117.7
			c8.7,0,16.6-3.6,22.4-9.3c5.7-5.7,9.3-13.7,9.3-22.4V197.6z"/>
		<path d="M285.5,287.3h40.2c4.3,0,8.2,1.7,11,4.6c2.8,2.8,4.6,6.7,4.6,11V343c0,4.3-1.7,8.2-4.6,11c-2.8,2.8-6.7,4.6-11,4.6h-40.2
			c-4.3,0-8.2-1.7-11-4.6c-2.8-2.8-4.6-6.7-4.6-11v-40.2c0-4.3,1.7-8.2,4.6-11C277.3,289.1,281.2,287.3,285.5,287.3L285.5,287.3z
			 M325.7,298.9h-40.2c-1.1,0-2.1,0.5-2.8,1.2c-0.7,0.7-1.2,1.7-1.2,2.8V343c0,1.1,0.5,2.1,1.2,2.8c0.7,0.7,1.7,1.2,2.8,1.2h40.2
			c1.1,0,2.1-0.5,2.8-1.2c0.7-0.7,1.2-1.7,1.2-2.8v-40.2c0-1.1-0.5-2.1-1.2-2.8C327.8,299.3,326.8,298.9,325.7,298.9z"/>
		<path d="M430.3,199.1c0.9-3.1-0.9-6.2-4-7.1c-3.1-0.9-6.2,0.9-7.1,4c-1.4,5.1-3.9,9.3-7.1,12.3c-2.8,2.6-6.1,4.1-9.6,4.1
			s-6.8-1.5-9.6-4.1c-3.2-2.9-5.7-7.2-7.1-12.3c-0.9-3.1-4-4.8-7.1-4c-3.1,0.9-4.8,4-4,7.1c2,7.1,5.7,13.3,10.4,17.6
			c4.9,4.5,10.9,7.2,17.4,7.2c6.5,0,12.5-2.6,17.4-7.2C424.6,212.4,428.3,206.2,430.3,199.1z"/>
		<path d="M385.7,199.1c0.9-3.1-0.9-6.2-4-7.1c-3.1-0.9-6.2,0.9-7.1,4c-1.4,5.1-3.9,9.3-7.1,12.3c-2.8,2.6-6.1,4.1-9.6,4.1
			s-6.8-1.5-9.6-4.1c-3.2-2.9-5.7-7.2-7.1-12.3c-0.9-3.1-4-4.8-7.1-4c-3.1,0.9-4.8,4-4,7.1c2,7.1,5.7,13.3,10.4,17.6
			c4.9,4.5,10.9,7.2,17.4,7.2c6.5,0,12.5-2.6,17.4-7.2C380,212.4,383.7,206.2,385.7,199.1z"/>
		<path d="M341,199.1c0.9-3.1-0.9-6.2-4-7.1c-3.1-0.9-6.2,0.9-7.1,4c-1.4,5.1-3.9,9.3-7.1,12.3c-2.8,2.6-6.1,4.1-9.6,4.1
			c-3.5,0-6.8-1.5-9.6-4.1c-3.2-2.9-5.7-7.2-7.1-12.3c-0.9-3.1-4-4.8-7.1-4c-3.1,0.9-4.8,4-4,7.1c2,7.1,5.7,13.3,10.4,17.6
			c4.9,4.5,10.9,7.2,17.4,7.2c6.5,0,12.5-2.6,17.4-7.2C335.4,212.4,339,206.2,341,199.1z"/>
		<path d="M296.4,199.1c0.9-3.1-0.9-6.2-4-7.1c-3.1-0.9-6.2,0.9-7.1,4c-1.4,5.1-3.9,9.3-7.1,12.3c-2.8,2.6-6.1,4.1-9.6,4.1
			c-3.5,0-6.8-1.5-9.6-4.1c-3.2-2.9-5.7-7.2-7.1-12.3c-0.9-3.1-4-4.8-7.1-4c-3.1,0.9-4.8,4-4,7.1c2,7.1,5.7,13.3,10.4,17.6
			c4.9,4.5,10.9,7.2,17.4,7.2c6.5,0,12.5-2.6,17.4-7.2C290.7,212.4,294.4,206.2,296.4,199.1z"/>
		<path d="M251.7,199.1c0.9-3.1-0.9-6.2-4-7.1c-3.1-0.9-6.2,0.9-7.1,4c-1.4,5.1-3.9,9.3-7.1,12.3c-2.8,2.6-6.1,4.1-9.6,4.1
			c-3.5,0-6.8-1.5-9.6-4.1c-3.2-2.9-5.7-7.2-7.1-12.3c-0.9-3.1-4-4.8-7.1-4c-3.1,0.9-4.8,4-4,7.1c2,7.1,5.7,13.3,10.4,17.6
			c4.9,4.5,10.9,7.2,17.4,7.2c6.5,0,12.5-2.6,17.4-7.2C246.1,212.4,249.7,206.2,251.7,199.1z"/>
		<path d="M207.1,199.1c0.9-3.1-0.9-6.2-4-7.1c-3.1-0.9-6.2,0.9-7.1,4c-1.4,5.1-3.9,9.3-7.1,12.3c-2.8,2.6-6.1,4.1-9.6,4.1
			c-3.5,0-6.8-1.5-9.6-4.1c-3.2-2.9-5.7-7.2-7.1-12.3c-0.9-3.1-4-4.8-7.1-4c-3.1,0.9-4.8,4-4,7.1c2,7.1,5.7,13.3,10.4,17.6
			c4.9,4.5,10.9,7.2,17.4,7.2c6.5,0,12.5-2.6,17.4-7.2C201.4,212.4,205.1,206.2,207.1,199.1z"/>
		<path d="M162.5,199.1c0.9-3.1-0.9-6.2-4-7.1c-3.1-0.9-6.2,0.9-7.1,4c-1.4,5.1-3.9,9.3-7.1,12.3c-2.8,2.6-6.1,4.1-9.6,4.1
			c-3.5,0-6.8-1.5-9.6-4.1c-3.2-2.9-5.7-7.2-7.1-12.3c-0.9-3.1-4-4.8-7.1-4c-3.1,0.9-4.8,4-4,7.1c2,7.1,5.7,13.3,10.4,17.6
			c4.9,4.5,10.9,7.2,17.4,7.2c6.5,0,12.5-2.6,17.4-7.2C156.8,212.4,160.5,206.2,162.5,199.1z"/>
		<path d="M117.8,199.1c0.9-3.1-0.9-6.2-4-7.1c-3.1-0.9-6.2,0.9-7.1,4c-1.4,5.1-3.9,9.3-7.1,12.3c-2.8,2.6-6.1,4.1-9.6,4.1
			c-3.5,0-6.8-1.5-9.6-4.1c-3.2-2.9-5.7-7.2-7.1-12.3c-0.9-3.1-4-4.8-7.1-4c-3.1,0.9-4.8,4-4,7.1c2,7.1,5.7,13.3,10.4,17.6
			c4.9,4.5,10.9,7.2,17.4,7.2c6.5,0,12.5-2.6,17.4-7.2C112.2,212.4,115.8,206.2,117.8,199.1z"/>
		<path d="M419.8,200.3c1.5,2.8,5,3.8,7.8,2.3c2.8-1.5,3.8-5,2.3-7.8L383,109.9l-5,2.8l5-2.8c-1.1-1.9-3.1-3-5.1-3H114.6
			c-2.3,0-4.3,1.3-5.2,3.3l-46.7,84.6c-1.5,2.8-0.5,6.3,2.3,7.8c2.8,1.5,6.3,0.5,7.8-2.3l45.2-81.9h256.6L419.8,200.3z"/>
		<path d="M144.6,106.9h203.3V92.8H144.6V106.9L144.6,106.9z M353.7,118.4H138.9c-3.2,0-5.8-2.6-5.8-5.8V87.1c0-3.2,2.6-5.8,5.8-5.8
			h214.8c3.2,0,5.8,2.6,5.8,5.8v25.6C359.4,115.8,356.8,118.4,353.7,118.4z"/>
	</g>
</g>
</svg>
