<?xml version="1.0" encoding="utf-8"?>
<!-- Generator: Adobe Illustrator 18.0.0, SVG Export Plug-In . SVG Version: 6.00 Build 0)  -->
<!DOCTYPE svg PUBLIC "-//W3C//DTD SVG 1.1//EN" "http://www.w3.org/Graphics/SVG/1.1/DTD/svg11.dtd">
<svg version="1.1" id="Capa_1" xmlns="http://www.w3.org/2000/svg" xmlns:xlink="http://www.w3.org/1999/xlink" x="0px" y="0px"
	 viewBox="0 0 725.4 792" enable-background="new 0 0 725.4 792" xml:space="preserve">
<g id="Layer_2">
</g>
<g id="Layer_3">
	<g id="XMLID_927_">
		
			<linearGradient id="XMLID_2_" gradientUnits="userSpaceOnUse" x1="74.505" y1="376.1152" x2="181.5065" y2="376.1152" gradientTransform="matrix(0.7254 0 0 0.7254 0 105.8401)">
			<stop  offset="0.2513" style="stop-color:#000416"/>
			<stop  offset="0.5759" style="stop-color:#00304E"/>
		</linearGradient>
		<path id="XMLID_941_" fill="url(#XMLID_2_)" d="M97.7,393.2c0,0,18.7,4.2,28-4.7c8.1-7.8,9-17.4-3.6-38.9
			c-10.4-17.9-10.8-29.9-10.8-29.9c-4.3,16.4,21.1,51.6,12.4,62.1c-0.1,0.1-0.3,0.3-0.4,0.5c-8.6,9.7-25.1,5.9-28.4-6.2
			c-6.8-25.6,3-48,12.3-62.1C76.6,321.7,54,348.1,54,379.3c0,15.2,5.3,29.2,14.3,40.4c2.4,14.7,8.8,23.6,8.8,23.6l0,0
			C66.2,407.9,97.7,393.2,97.7,393.2z"/>
		
			<linearGradient id="XMLID_3_" gradientUnits="userSpaceOnUse" x1="117.3755" y1="367.202" x2="278.6321" y2="367.202" gradientTransform="matrix(0.7254 0 0 0.7254 0 105.8401)">
			<stop  offset="0.2513" style="stop-color:#000416"/>
			<stop  offset="0.5759" style="stop-color:#00304E"/>
		</linearGradient>
		<path id="XMLID_949_" fill="url(#XMLID_3_)" d="M167,371.9c0,0-14.4-12.8-26.4-1.9l-0.9,5.3c-0.6,3.8-2.3,7.3-5,10.1l-0.1,0.1
			c0,0,4.7-10.9,2.6-19.9c0,0,2.6-5.5,10.7-6.7c5.1-0.8,9.8,2.2,12.8,5c3,2.7,6.8,4.4,10.8,5c7.8,0.9,21,3.5,30.5,10.5l0,0
			c0,0-1.9-2.4-5-5.1c-2.3-28.3-23-51.7-50.8-59.7l-2.1-17l0,0l-8.8,62c-5.8-13.9-12.4-28.7-12.4-28.7c0.4-7,3.9-13.5,7.7-19
			c-1.6-0.1-3.3-0.1-4.9-0.1c-1.4,0-3,0-4.4,0.1c-1.9-7.3-1.1-13.7-1.1-13.7l0,0c-9,21,4.6,40.4,13.1,60.2
			c8.6,19.7-2.4,31.3-2.4,31.3c1.6-0.7,3.1-1.9,4.3-3.1c3-3,4.9-6.6,5.6-10.6l0.7-4.2c8.6-9.6,23.5,0.8,23.5,0.8s-14-5.3-26,15
			c-10.1,17.2-31.5,13.2-31.5,13.2s2.1,5.3,0.7,10.2c-1.4,5.1-4.6,5-4.6,5c-1.3-4.3-0.4-17.2-0.4-17.2c-2.1,5-1.1,14.5-1.6,20.2
			c-0.4,5.7-4.9,6.3-4.9,6.3c-3.6-13.2,1.9-26,1.9-26c-7.8,10.9-2.3,23.6-3.6,28.8c-1.3,5.3-6.8,5.7-6.8,5.7
			c-3.7-18.2,4.3-30.7,4.3-30.7c-9.1,10.9-7,24.6-7.4,32.1c11.6,7.5,25.5,11.9,40.5,11.9c39.5,0,71.6-30.3,71.6-67.6
			c0-0.7,0-1.3,0-1.9C189.8,374.4,175.4,369.8,167,371.9z M149.2,382.6c-4.7,9.8-15.4,26.3-39.1,20.1c0,0,21.1,4,31.4-14.5
			c9.3-16.7,18.3-15.1,22.1-14.8C163.6,373.3,153.5,373.8,149.2,382.6z"/>
	</g>
	
		<linearGradient id="SVGID_1_" gradientUnits="userSpaceOnUse" x1="574.5969" y1="499.7859" x2="574.5969" y2="499.7859" gradientTransform="matrix(0.7254 0 0 0.7254 0 105.8401)">
		<stop  offset="0.1099" style="stop-color:#EC1C24"/>
		<stop  offset="0.1401" style="stop-color:#DC1F30"/>
		<stop  offset="0.2871" style="stop-color:#922E68"/>
		<stop  offset="0.3924" style="stop-color:#64378B"/>
		<stop  offset="0.445" style="stop-color:#523A98"/>
		<stop  offset="0.5061" style="stop-color:#513D9A"/>
		<stop  offset="0.5599" style="stop-color:#4D489F"/>
		<stop  offset="0.6108" style="stop-color:#465AA7"/>
		<stop  offset="0.66" style="stop-color:#3C74B3"/>
		<stop  offset="0.7076" style="stop-color:#3094C1"/>
		<stop  offset="0.7382" style="stop-color:#26ADCD"/>
	</linearGradient>
	<path fill="url(#SVGID_1_)" stroke="#000000" stroke-width="6" stroke-miterlimit="10" d="M416.8,468.4"/>
	
		<linearGradient id="SVGID_2_" gradientUnits="userSpaceOnUse" x1="143.7272" y1="499.7859" x2="143.7272" y2="499.7859" gradientTransform="matrix(0.7254 0 0 0.7254 0 105.8401)">
		<stop  offset="0.1099" style="stop-color:#EC1C24"/>
		<stop  offset="0.1401" style="stop-color:#DC1F30"/>
		<stop  offset="0.2871" style="stop-color:#922E68"/>
		<stop  offset="0.3924" style="stop-color:#64378B"/>
		<stop  offset="0.445" style="stop-color:#523A98"/>
		<stop  offset="0.5061" style="stop-color:#513D9A"/>
		<stop  offset="0.5599" style="stop-color:#4D489F"/>
		<stop  offset="0.6108" style="stop-color:#465AA7"/>
		<stop  offset="0.66" style="stop-color:#3C74B3"/>
		<stop  offset="0.7076" style="stop-color:#3094C1"/>
		<stop  offset="0.7382" style="stop-color:#26ADCD"/>
	</linearGradient>
	<path fill="url(#SVGID_2_)" stroke="#000000" stroke-width="6" stroke-miterlimit="10" d="M104.3,468.4"/>
	<g>
		<text transform="matrix(1.059 0 0 1 266.8329 396.0247)" fill="#252525" font-family="'Moon2.0-Regular'" font-size="43.7437">KOLIBRIE</text>
		<line fill="none" stroke="#000000" stroke-width="7" stroke-miterlimit="10" x1="219.8" y1="379.7" x2="264.9" y2="379.7"/>
		<line fill="none" stroke="#000000" stroke-width="7" stroke-miterlimit="10" x1="437.1" y1="379.7" x2="482.1" y2="379.7"/>
	</g>
	<text transform="matrix(1.059 0 0 1 238.4344 412.4745)" font-family="'Moon2.0-Regular'" font-size="13.98">THE FASTEST AT YOUR SERVICE</text>
</g>
</svg>
