<?xml version="1.0" encoding="utf-8"?>
<!-- Generator: Adobe Illustrator 18.0.0, SVG Export Plug-In . SVG Version: 6.00 Build 0)  -->
<!DOCTYPE svg PUBLIC "-//W3C//DTD SVG 1.1//EN" "http://www.w3.org/Graphics/SVG/1.1/DTD/svg11.dtd">
<svg version="1.1" id="Capa_1" xmlns="http://www.w3.org/2000/svg" xmlns:xlink="http://www.w3.org/1999/xlink" x="0px" y="0px"
	 viewBox="0 0 725.4 792" enable-background="new 0 0 725.4 792" xml:space="preserve">
<circle fill="#ECE9EC" cx="408.7" cy="411.3" r="90.2"/>
<path fill="#004E6A" d="M340.4,396.6c10.3-4.1,24.5-6.2,33.2-7.1c1.8-0.2,3.6-0.9,5.1-1.9c6.1-4.1,12.6-3.3,15.4-1.5
	c3.5,2.2,6,9.4,9.9,11.7c0,0,25.9-17.4,67.2-12.3l-53,32.2l33.2,42.5c0,0-27.6-27.1-44.9-33.8c-24.2-9.4-16.9-21.9-24.4-29.3
	c-2-2-4.6-3.1-7.4-3.3C368.3,393.3,358.4,393.3,340.4,396.6z M440.2,381.1l13.4-12.8c-31.8-1.3-48.7,24.1-48.7,24.1
	C421,382.4,440.2,381.1,440.2,381.1z"/>
<g>
	<line fill="#ECE9EC" stroke="#ECE9EC" stroke-width="2" stroke-miterlimit="10" x1="529.9" y1="395.8" x2="552.5" y2="426.1"/>
	<line fill="#ECE9EC" stroke="#ECE9EC" stroke-width="2" stroke-miterlimit="10" x1="573.9" y1="395.2" x2="552.5" y2="426.4"/>
</g>
<circle fill="#ECE9EC" cx="408.7" cy="411.3" r="90.2"/>
<path fill="#004E6A" d="M340.4,396.6c10.3-4.1,24.5-6.2,33.2-7.1c1.8-0.2,3.6-0.9,5.1-1.9c6.1-4.1,12.6-3.3,15.4-1.5
	c3.5,2.2,6,9.4,9.9,11.7c0,0,25.9-17.4,67.2-12.3l-53,32.2l33.2,42.5c0,0-27.6-27.1-44.9-33.8c-24.2-9.4-16.9-21.9-24.4-29.3
	c-2-2-4.6-3.1-7.4-3.3C368.3,393.3,358.4,393.3,340.4,396.6z M440.2,381.1l13.4-12.8c-31.8-1.3-48.7,24.1-48.7,24.1
	C421,382.4,440.2,381.1,440.2,381.1z"/>
<g>
	<line fill="#ECE9EC" stroke="#ECE9EC" stroke-width="2" stroke-miterlimit="10" x1="529.9" y1="395.8" x2="552.5" y2="426.1"/>
	<line fill="#ECE9EC" stroke="#ECE9EC" stroke-width="2" stroke-miterlimit="10" x1="573.9" y1="395.2" x2="552.5" y2="426.4"/>
</g>
</svg>
