<?xml version="1.0" encoding="utf-8"?>
<!-- Generator: Adobe Illustrator 18.0.0, SVG Export Plug-In . SVG Version: 6.00 Build 0)  -->
<!DOCTYPE svg PUBLIC "-//W3C//DTD SVG 1.1//EN" "http://www.w3.org/Graphics/SVG/1.1/DTD/svg11.dtd">
<svg version="1.1" id="iconos" xmlns="http://www.w3.org/2000/svg" xmlns:xlink="http://www.w3.org/1999/xlink" x="0px" y="0px"
	 viewBox="0 0 2122 2122" enable-background="new 0 0 2122 2122" xml:space="preserve">
<g>
	<path fill="none" d="M1314.4,970.2c-10.2,3.4-20.4,5.1-30.3,5.1c-16.5,0-32.5-4.7-47.1-14c-28.9-18.4-49.6-53.5-54-91.6l-0.2-1.5
		c-0.8-6.7-1.4-12.7-1.8-18l-122.1-22.9h-79.3c-5.2,0-10.3,0.2-15.2,0.6l-43.5,44.2c18.1-6.3,37.4-9.7,57.6-9.7
		c92.2,0,168,71.4,175.1,161.8h268.1c7.5-56.2,52.1-100.8,108.3-108.5l-157.7-29.6C1366.4,917.8,1353.3,957.2,1314.4,970.2z"/>
	<path fill="#534C4F" d="M1074.4,1053.9c-6.3,47.2-46.9,83.8-95.8,83.8c-48.9,0-89.5-36.6-95.8-83.8h-30
		c6.5,63.7,60.4,113.6,125.8,113.6s119.3-49.9,125.8-113.6H1074.4z"/>
	<path fill="#534C4F" d="M887.2,750h84.9v-4.5H847.6V562.6h248.3v182.9h-12.1v4.5h41.9V547.8c0-8.2-6.7-14.9-14.9-14.9H832.7
		c-8.2,0-14.9,6.7-14.9,14.9v212.7c0,8.2,6.7,14.9,14.9,14.9H851C856.4,760.6,870.6,750,887.2,750z"/>
	<path fill="#534C4F" d="M1083.8,672.2c0-8.2-6.7-14.9-14.9-14.9h-81.9c-8.2,0-14.9,6.7-14.9,14.9v73.4v4.5h111.7v-4.5V672.2z
		 M1001.8,745.6v-58.5h52.2v58.5H1001.8z"/>
	<path fill="#534C4F" d="M1393.3,640.1l107,243.1c2.9,6.5,9.9,10.1,16.9,8.5c0.9-0.2,84.8-18.2,122.7,44.6c1.9,3.1,3.7,6.3,5.3,9.8
		c3.5,7.4,12.3,10.7,19.8,7.2c7.4-3.5,10.7-12.3,7.2-19.8c-32.5-69.7-106-78.7-149.4-73l-104.5-237.5
		C1411.3,631,1402.7,637,1393.3,640.1z"/>
	<path fill="#534C4F" d="M1180.6,827.2c-0.4,6-0.3,13.5,0.4,22.9c0.4,5.4,1,11.3,1.8,18l0.2,1.5c4.4,38.1,25,73.2,54,91.6
		c14.6,9.3,30.5,14,47.1,14c9.9,0,20.1-1.7,30.3-5.1c38.9-13,52-52.5,57.9-84.2c0.5-2.6,0.9-5.2,1.3-7.8
		c8.2-51.4,3.7-105.3-0.6-157.5c-1.6-19.3-3.1-37.5-4-55.7c-0.2-3-0.3-6-0.4-9c-0.2-4.8-0.4-9.6-0.7-14.5
		c-12.6-2.6-23.9-9.9-32.6-20.6c2.5,11.3,3,23.4,3.6,36.2c0.1,3.1,0.3,6.2,0.4,9.3c0.9,18.6,2.6,38,4.1,56.7
		c4.2,50.4,8.5,102.4,0.9,150.3c-0.4,2.4-0.8,4.7-1.2,7c-6.7,35.9-18.6,54.9-38,61.4c-18.7,6.3-36.2,4.3-52-5.8
		c-21.2-13.5-37.1-40.9-40.4-69.9l-0.2-1.7c-0.4-3.1-0.7-6-1-8.8c-1.5-15.4-1.4-24-0.9-28.6H1180.6z"/>
	<path fill="#534C4F" d="M1421.7,1024.1h-268.1c0.4,4.6,0.6,9.2,0.6,13.9l0,1c0,8.2-6.7,14.9-14.9,14.9h281.9
		c-0.4-4.3-0.7-8.6-0.7-12.9C1420.6,1035.3,1421,1029.6,1421.7,1024.1z"/>
	<path fill="#534C4F" d="M864.4,904.6c4.5-14.8,12.1-30.9,24.9-44.4c17.9-18.9,43.1-29.8,75.1-32.3c4.9-0.4,10-0.6,15.2-0.6h-92.5
		c-1.8,0-3.5-0.2-5.2-0.4c-5.1,3.9-9.8,8.2-14.3,12.9c-36.5,38.7-39.5,91.3-39.5,107.4C837.9,931.1,850.2,916.8,864.4,904.6z"/>
	<path fill="#534C4F" d="M1367.9,641.7c3.2,0.6,6.4,1.1,9.8,1.1c5.4,0,10.6-1,15.7-2.7c9.4-3.2,18-9.1,25-17.1c2.5-2.9,4.9-6,7-9.4
		c-8.8,9.5-20.4,15.3-33,15.3c-11.2,0-18.3-7.4-22.7-17.7c-13-5.4-22.8-23.4-22.8-44.2c0-20.8,9.9-38.9,23-44.3
		c6.2-14.4,15.4-17.7,22.6-17.7c12.6,0,24.2,5.8,33,15.3c-11.1-17.7-28.3-29.1-47.7-29.1c-33.4,0-60.6,33.9-60.6,75.7
		c0,4.6,0.4,9.1,1,13.5h13.9c8.2,0,14.9,6.7,14.9,14.9c0,8.2-6.7,14.9-14.9,14.9h-3.9c2.2,3.9,4.6,7.5,7.3,10.7
		C1344,631.8,1355.3,639.1,1367.9,641.7z"/>
	<path fill="#534C4F" d="M1392.3,505.2c-7.2,0-16.4,3.3-22.6,17.7c-1,2.3-2,5-2.8,7.9c-2.7,9.8-4.2,22.7-4.2,36.3
		c0,13,1.2,31,6.9,44.2c4.4,10.3,11.5,17.7,22.7,17.7c12.6,0,24.2-5.8,33-15.3c10.6-11.4,17.3-28,17.3-46.6
		c0-18.6-6.7-35.2-17.3-46.6C1416.5,511,1404.9,505.2,1392.3,505.2z M1396.4,535.7c9.1,3.2,16.4,16.5,16.4,31.4
		c0,14.9-7.3,28.3-16.4,31.4C1391.3,585.7,1391.3,548.5,1396.4,535.7z"/>
	<path fill="#534C4F" d="M1346.8,595.5c0-8.2-6.7-14.9-14.9-14.9H1318h-126.1c-8.2,0-14.9,6.7-14.9,14.9c0,8.2,6.7,14.9,14.9,14.9
		H1328h3.9C1340.1,610.4,1346.8,603.7,1346.8,595.5z"/>
	<path fill="#534C4F" d="M1608.4,930.4c-18.2-10.1-39.1-15.9-61.3-15.9c-5.8,0-11.5,0.4-17.1,1.2c-56.2,7.6-100.7,52.2-108.3,108.5
		c-0.7,5.5-1.2,11.1-1.2,16.8c0,4.4,0.2,8.7,0.7,12.9c6.5,63.7,60.5,113.6,125.8,113.6c69.7,0,126.5-56.7,126.5-126.5
		C1673.6,993.5,1647.2,952,1608.4,930.4z M1547.1,1137.7c-53.3,0-96.7-43.4-96.7-96.7c0-53.3,43.4-96.7,96.7-96.7
		c53.3,0,96.7,43.4,96.7,96.7C1643.8,1094.3,1600.4,1137.7,1547.1,1137.7z"/>
	<path fill="#534C4F" d="M1547.1,983.7c-31.6,0-57.2,25.7-57.2,57.2c0,31.5,25.7,57.2,57.2,57.2c31.5,0,57.2-25.7,57.2-57.2
		C1604.3,1009.4,1578.6,983.7,1547.1,983.7z M1547.1,1068.4c-15.1,0-27.5-12.3-27.5-27.4c0-15.1,12.3-27.5,27.5-27.5
		c15.1,0,27.5,12.3,27.5,27.5C1574.5,1056.1,1562.2,1068.4,1547.1,1068.4z"/>
	<path fill="#534C4F" d="M971.7,1098.2c27.1,0,49.8-19,55.7-44.3h-31.5c-4.6,8.6-13.7,14.5-24.2,14.5c-10.5,0-19.6-5.9-24.2-14.5
		H916C921.9,1079.2,944.6,1098.2,971.7,1098.2z"/>
	<path fill="#534C4F" d="M1154.2,1039l0-1c0-4.7-0.2-9.3-0.6-13.9c-7.1-90.4-82.9-161.8-175.1-161.8c-20.2,0-39.5,3.5-57.6,9.7
		c-20.9,7.3-40.1,18.4-56.5,32.5c-14.2,12.2-26.5,26.5-36.2,42.6c-16.1,26.5-25.4,57.6-25.4,90.8c0,0.4,0,0.7,0,1
		c0,8.2,6.7,14.9,14.9,14.9h35h30H916h31.5h48.4h31.5h46.9h30h29.7h5.2C1147.6,1053.9,1154.2,1047.2,1154.2,1039z M833.2,1024.1
		c7-74,69.5-132,145.3-132c75.8,0,138.3,58.1,145.3,132H833.2z"/>
	<path fill="#534C4F" d="M979.6,827.2h79.3h121.7h29.9h7c21.3,0,38.6-17.3,38.6-38.6c0-21.3-17.3-38.6-38.6-38.6h-91.8h-41.9H972.1
		h-84.9c-16.6,0-30.7,10.5-36.2,25.3c-1.5,4.2-2.4,8.6-2.4,13.3c0,19.5,14.5,35.6,33.3,38.2c1.7,0.2,3.5,0.4,5.2,0.4H979.6z
		 M878.3,788.6c0-4.9,4-8.8,8.8-8.8h330.3c4.9,0,8.8,4,8.8,8.8c0,4.9-4,8.8-8.8,8.8h-14.9H979.6h-92.5
		C882.3,797.5,878.3,793.5,878.3,788.6z"/>
	<path fill="#534C4F" d="M639.9,647.9c-8.2,0-14.9,6.7-14.9,14.9c0,8.2,6.7,14.9,14.9,14.9h148.9c8.2,0,14.9-6.7,14.9-14.9
		c0-8.2-6.7-14.9-14.9-14.9H639.9z"/>
	<path fill="#534C4F" d="M817.9,872.6c0-8.2-6.7-14.9-14.9-14.9H654.1c-8.2,0-14.9,6.7-14.9,14.9s6.7,14.9,14.9,14.9H803
		C811.3,887.5,817.9,880.8,817.9,872.6z"/>
	<path fill="#534C4F" d="M812.6,546.3c0-8.2-6.7-14.9-14.9-14.9H476.9c-8.2,0-14.9,6.7-14.9,14.9c0,8.2,6.7,14.9,14.9,14.9h320.8
		C805.9,561.2,812.6,554.6,812.6,546.3z"/>
	<path fill="#534C4F" d="M796.9,759c0-8.2-6.7-14.9-14.9-14.9H392.9c-8.2,0-14.9,6.7-14.9,14.9s6.7,14.9,14.9,14.9H782
		C790.2,773.9,796.9,767.3,796.9,759z"/>
</g>
</svg>
