<?xml version="1.0" encoding="utf-8"?>
<!-- Generator: Adobe Illustrator 18.0.0, SVG Export Plug-In . SVG Version: 6.00 Build 0)  -->
<!DOCTYPE svg PUBLIC "-//W3C//DTD SVG 1.1//EN" "http://www.w3.org/Graphics/SVG/1.1/DTD/svg11.dtd">
<svg version="1.1" id="iconos" xmlns="http://www.w3.org/2000/svg" xmlns:xlink="http://www.w3.org/1999/xlink" x="0px" y="0px"
	 viewBox="0 0 2122 2122" enable-background="new 0 0 2122 2122" xml:space="preserve">
<g>
	<g id="XMLID_1_">
		<g>
			<path fill="#FFFFFF" d="M1022.4,704.8L960.3,768c-29.9,10.4-57.2,26.3-80.8,46.5c6.4-21.1,17.3-44.1,35.6-63.5
				C940.6,724,976.7,708.5,1022.4,704.8z"/>
			<path fill="#FFFFFF" d="M1334.9,764.7c6.3,54.5,35.8,104.6,77.1,130.9c20.9,13.3,43.7,20,67.3,20c14.2,0,28.8-2.4,43.4-7.3
				c55.6-18.6,74.3-75,82.7-120.3l225.4,42.3c-80.3,10.9-144,74.7-154.7,155h-383.2c-10.2-129.2-118.5-231.3-250.3-231.3
				c-28.8,0-56.5,4.9-82.3,13.9l62.1-63.2c7-0.6,14.3-0.9,21.8-0.9h113.3l174.5,32.8c0.6,7.7,1.4,16.2,2.6,25.8L1334.9,764.7z"/>
			<path fill="#FFFFFF" d="M1942.8,851.4c55.5,30.9,93.2,90.2,93.2,158.1c0,99.7-81.1,180.8-180.8,180.8
				c-93.4,0-170.6-71.3-179.8-162.3c-0.6-6.1-0.9-12.2-0.9-18.5c0-8.2,0.6-16.2,1.7-24.1c10.8-80.3,74.4-144.1,154.7-155
				c8-1.1,16.1-1.7,24.4-1.7C1886.9,828.7,1916.8,836.9,1942.8,851.4z M1993.4,1009.4c0-76.2-62-138.2-138.2-138.2
				c-76.2,0-138.2,62-138.2,138.2c0,76.2,62,138.2,138.2,138.2C1931.4,1147.7,1993.4,1085.7,1993.4,1009.4z"/>
			<path fill="#FFFFFF" d="M1855.2,927.6c45.1,0,81.8,36.7,81.8,81.8c0,45.1-36.7,81.8-81.8,81.8c-45.1,0-81.8-36.7-81.8-81.8
				C1773.4,964.3,1810.1,927.6,1855.2,927.6z M1894.4,1009.4c0-21.6-17.6-39.2-39.2-39.2c-21.6,0-39.2,17.6-39.2,39.2
				c0,21.6,17.6,39.2,39.2,39.2C1876.8,1048.7,1894.4,1031.1,1894.4,1009.4z"/>
			<path fill="#FFFFFF" d="M1633.9,243.7c18.1,0,34.5,8.3,47.2,21.9c15.1,16.2,24.7,40,24.7,66.6s-9.6,50.4-24.7,66.6
				c-12.6,13.6-29.1,21.9-47.2,21.9c-16.1,0-26.2-10.6-32.4-25.3c-8.1-18.9-9.8-44.6-9.8-63.2c0-19.5,2.1-37.9,6-51.9
				c1.2-4.3,2.5-8,4-11.3C1610.5,248.4,1623.7,243.7,1633.9,243.7z M1663.3,332.2c0-21.3-10.4-40.4-23.4-44.9
				c-7.4,18.4-7.4,71.5,0,89.9C1652.9,372.6,1663.3,353.5,1663.3,332.2z"/>
			<path fill="#FFFFFF" d="M1292.9,985.3H1676c-1.1,7.9-1.7,15.9-1.7,24.1c0,6.2,0.3,12.4,0.9,18.5h-402.9
				c11.7,0,21.3-9.5,21.3-21.3l0-1.4C1293.7,998.5,1293.4,991.9,1292.9,985.3z"/>
			<path fill="#FFFFFF" d="M1671.1,412.2l149.4,339.4c62-8.2,167,4.7,213.5,104.3c5,10.7,0.4,23.3-10.3,28.3
				c-10.7,5-23.3,0.4-28.3-10.3c-2.3-5-4.9-9.6-7.6-14c-54.2-89.7-174.1-64-175.4-63.7c-9.9,2.2-20.1-2.9-24.2-12.2l-152.9-347.4
				C1648.9,432,1661.1,423.6,1671.1,412.2z"/>
			<path fill="#FFFFFF" d="M1601.5,395.4c6.3,14.7,16.4,25.3,32.4,25.3c18.1,0,34.5-8.3,47.2-21.9c-3,4.8-6.4,9.3-10,13.4
				c-10.1,11.4-22.3,19.9-35.8,24.4c-7.2,2.4-14.6,3.8-22.4,3.8c-4.8,0-9.4-0.6-14-1.5c-18-3.7-34.1-14.2-46.6-29.4
				c-3.9-4.7-7.3-9.9-10.4-15.4h5.6c11.8,0,21.3-9.5,21.3-21.3c0-11.8-9.5-21.3-21.3-21.3h-19.8c-0.9-6.3-1.5-12.7-1.5-19.3
				c0-59.6,38.9-108.1,86.7-108.1c27.7,0,52.3,16.3,68.1,41.5c-12.6-13.6-29.1-21.9-47.2-21.9c-10.2,0-23.4,4.7-32.3,25.3
				c-18.6,7.6-32.8,33.5-32.8,63.2C1568.9,361.9,1583,387.6,1601.5,395.4z"/>
			<path fill="#FFFFFF" d="M1552.4,409.4c12.5,15.2,28.6,25.7,46.6,29.4c0.4,6.9,0.7,13.8,1,20.7c0.2,4.3,0.3,8.6,0.6,12.8
				c1.3,26,3.5,52,5.8,79.6c6.2,74.5,12.6,151.5,0.9,225.1c-0.6,3.6-1.2,7.3-1.9,11.1c-8.4,45.3-27.1,101.7-82.7,120.3
				c-14.6,4.9-29.2,7.3-43.4,7.3c-23.6,0-46.4-6.7-67.3-20c-41.3-26.3-70.9-76.5-77.1-130.9l-0.3-2.2c-1.2-9.6-2-18.1-2.6-25.8
				c-1-13.4-1.2-24.1-0.6-32.8h42.7c-0.6,6.6-0.8,18.8,1.4,40.9c0.4,3.9,0.9,8,1.4,12.5l0.3,2.5c4.7,41.4,27.4,80.6,57.7,99.9
				c22.6,14.4,47.6,17.2,74.3,8.2c27.8-9.3,44.8-36.6,54.4-87.8c0.6-3.2,1.2-6.5,1.7-9.9c10.9-68.4,4.7-142.8-1.3-214.8
				c-2.2-26.7-4.5-54.3-5.9-81c-0.2-4.4-0.4-8.8-0.6-13.3C1556.8,442.9,1556,425.5,1552.4,409.4z"/>
			<path fill="#FFFFFF" d="M1547.6,351.5c11.8,0,21.3,9.5,21.3,21.3c0,11.7-9.5,21.3-21.3,21.3h-5.6h-194.5
				c-11.7,0-21.3-9.5-21.3-21.3c0-11.8,9.5-21.3,21.3-21.3h180.3H1547.6z"/>
			<path fill="#FFFFFF" d="M1384,593.7c30.4,0,55.2,24.7,55.2,55.2c0,30.4-24.7,55.2-55.2,55.2h-9.9h-42.7h-173.9h-113.3H912
				c-2.6,0-5-0.2-7.5-0.6c-26.9-3.7-47.7-26.7-47.7-54.6c0-6.7,1.3-13.1,3.5-19c7.8-21.1,28-36.1,51.7-36.1h121.3H1193h59.9H1384z
				 M1396.6,648.8c0-7-5.7-12.6-12.6-12.6H912c-7,0-12.6,5.6-12.6,12.6c0,7,5.7,12.6,12.6,12.6h132.1h318.6h21.2
				C1391,661.4,1396.6,655.8,1396.6,648.8z"/>
			<path fill="#FFFFFF" d="M1252.9,304.5v289.1H1193v-6.4h17.3V325.8H855.5v261.4h177.9v6.4H912c-23.7,0-43.9,15.1-51.7,36.1h-26.2
				c-11.7,0-21.3-9.5-21.3-21.3v-304c0-11.7,9.5-21.3,21.3-21.3h397.4C1243.3,283.3,1252.9,292.8,1252.9,304.5z"/>
			<path fill="#FFFFFF" d="M1222.4,1027.9c-9.3,91-86.4,162.3-179.8,162.3s-170.6-71.3-179.8-162.3h42.9
				c9.1,67.5,67,119.8,137,119.8c70,0,127.9-52.3,137-119.8H1222.4z"/>
			<path fill="#FFFFFF" d="M1042.6,754.1c131.8,0,240.1,102,250.3,231.3c0.5,6.6,0.8,13.2,0.8,19.9l0,1.4c0,11.7-9.5,21.3-21.3,21.3
				h-7.5h-42.5h-42.9h-67.1h-45h-69.2h-45h-47.7h-42.9h-50c-11.8,0-21.3-9.5-21.3-21.3c0-0.4,0-0.9,0-1.4
				c0-47.5,13.3-91.9,36.2-129.8c13.9-23,31.5-43.5,51.8-60.8c23.6-20.2,50.9-36.1,80.8-46.5C986.1,759,1013.8,754.1,1042.6,754.1z
				 M835,985.3h415.3c-10-105.7-99.3-188.7-207.6-188.7C934.3,796.6,845,879.6,835,985.3z"/>
			<path fill="#FFFFFF" d="M1193,587.2v6.4h-159.6v-6.4V482.4c0-11.8,9.5-21.3,21.3-21.3h117.1c11.7,0,21.3,9.5,21.3,21.3V587.2z
				 M1150.4,587.2v-83.6h-74.5v83.6H1150.4z"/>
			<path fill="#FFFFFF" d="M1112.5,1027.9c-8.4,36.2-40.9,63.3-79.6,63.3c-38.7,0-71.2-27.1-79.6-63.3h45
				c6.6,12.3,19.6,20.8,34.6,20.8c15,0,28-8.4,34.6-20.8H1112.5z"/>
			<path fill="#FFFFFF" d="M904.5,703.4c2.5,0.3,4.9,0.6,7.5,0.6h132.1c-7.5,0-14.7,0.3-21.8,0.9c-45.8,3.6-81.8,19.1-107.3,46.2
				c-18.3,19.4-29.2,42.4-35.6,63.5c-20.3,17.4-37.8,37.9-51.8,60.8c0-23.1,4.2-98.3,56.4-153.6C890.5,715.1,897.3,709,904.5,703.4z
				"/>
			<path fill="#FFFFFF" d="M791.8,747.5c11.8,0,21.3,9.5,21.3,21.3c0,11.7-9.5,21.3-21.3,21.3H578.9c-11.8,0-21.3-9.5-21.3-21.3
				c0-11.8,9.5-21.3,21.3-21.3H791.8z"/>
			<path fill="#FFFFFF" d="M784.2,281.3c11.8,0,21.3,9.5,21.3,21.3s-9.5,21.3-21.3,21.3H325.7c-11.7,0-21.3-9.5-21.3-21.3
				s9.5-21.3,21.3-21.3H784.2z"/>
			<path fill="#FFFFFF" d="M771.6,447.6c11.8,0,21.3,9.5,21.3,21.3c0,11.7-9.5,21.3-21.3,21.3H558.7c-11.8,0-21.3-9.5-21.3-21.3
				c0-11.8,9.5-21.3,21.3-21.3H771.6z"/>
			<path fill="#FFFFFF" d="M761.8,585.2c11.7,0,21.3,9.5,21.3,21.3s-9.5,21.3-21.3,21.3H205.7c-11.8,0-21.3-9.5-21.3-21.3
				s9.5-21.3,21.3-21.3H761.8z"/>
		</g>
		<g>
			<line fill="none" stroke="#FFFFFF" stroke-miterlimit="10" x1="1830.8" y1="830.3" x2="1605.3" y2="788"/>
			<line fill="none" stroke="#FFFFFF" stroke-miterlimit="10" x1="1022.4" y1="704.8" x2="960.3" y2="768"/>
			<line fill="none" stroke="#FFFFFF" stroke-miterlimit="10" x1="1332" y1="736.7" x2="1157.5" y2="704"/>
			<path fill="none" stroke="#FFFFFF" stroke-miterlimit="10" d="M862.8,1027.9c9.3,91,86.4,162.3,179.8,162.3
				s170.6-71.3,179.8-162.3"/>
			<path fill="none" stroke="#FFFFFF" stroke-miterlimit="10" d="M1179.6,1027.9c-9.1,67.5-67,119.8-137,119.8
				c-70,0-127.9-52.3-137-119.8"/>
			<path fill="none" stroke="#FFFFFF" stroke-miterlimit="10" d="M1252.9,593.7V304.5c0-11.7-9.5-21.3-21.3-21.3H834.2
				c-11.7,0-21.3,9.5-21.3,21.3v304c0,11.7,9.5,21.3,21.3,21.3h26.2"/>
			<polyline fill="none" stroke="#FFFFFF" stroke-miterlimit="10" points="1033.3,587.2 855.5,587.2 855.5,325.8 1210.3,325.8 
				1210.3,587.2 1193,587.2 			"/>
			<path fill="none" stroke="#FFFFFF" stroke-miterlimit="10" d="M1193,593.7v-6.4V482.4c0-11.8-9.5-21.3-21.3-21.3h-117.1
				c-11.7,0-21.3,9.5-21.3,21.3v104.8v6.4"/>
			<rect x="1075.9" y="503.7" fill="none" stroke="#FFFFFF" stroke-miterlimit="10" width="74.5" height="83.6"/>
			<path fill="none" stroke="#FFFFFF" stroke-miterlimit="10" d="M1635.4,436.5l152.9,347.4c4.1,9.3,14.2,14.4,24.2,12.2
				c1.3-0.3,121.2-26,175.4,63.7c2.7,4.4,5.2,9,7.6,14c5,10.7,17.6,15.3,28.3,10.3c10.7-5,15.3-17.6,10.3-28.3
				c-46.4-99.7-151.5-112.5-213.5-104.3l-149.4-339.4"/>
			<path fill="none" stroke="#FFFFFF" stroke-miterlimit="10" d="M1552.4,409.4c3.6,16.1,4.3,33.5,5.1,51.8
				c0.2,4.4,0.4,8.9,0.6,13.3c1.3,26.6,3.6,54.3,5.9,81c6,72,12.2,146.4,1.3,214.8c-0.5,3.4-1.1,6.7-1.7,9.9
				c-9.6,51.2-26.5,78.5-54.4,87.8c-26.7,8.9-51.7,6.2-74.3-8.2c-30.3-19.3-53-58.5-57.7-99.9l-0.3-2.5c-0.5-4.5-1-8.6-1.4-12.5
				c-2.2-22.1-2-34.3-1.4-40.9"/>
			<path fill="none" stroke="#FFFFFF" stroke-miterlimit="10" d="M1331.4,704c-0.5,8.6-0.4,19.3,0.6,32.8c0.6,7.7,1.4,16.2,2.6,25.8
				l0.3,2.2c6.3,54.5,35.8,104.6,77.1,130.9c20.9,13.3,43.7,20,67.3,20c14.2,0,28.8-2.4,43.4-7.3c55.6-18.6,74.3-75,82.7-120.3
				c0.7-3.8,1.3-7.5,1.9-11.1c11.7-73.5,5.3-150.6-0.9-225.1c-2.3-27.6-4.5-53.6-5.8-79.6c-0.2-4.3-0.4-8.5-0.6-12.8
				c-0.3-6.8-0.6-13.7-1-20.7"/>
			<line fill="none" stroke="#FFFFFF" stroke-miterlimit="10" x1="1272.4" y1="1027.9" x2="1675.3" y2="1027.9"/>
			<line fill="none" stroke="#FFFFFF" stroke-miterlimit="10" x1="1676" y1="985.3" x2="1292.9" y2="985.3"/>
			<path fill="none" stroke="#FFFFFF" stroke-miterlimit="10" d="M904.5,703.4c-7.2,5.6-14.1,11.7-20.4,18.4
				c-52.2,55.3-56.4,130.5-56.4,153.6"/>
			<path fill="none" stroke="#FFFFFF" stroke-miterlimit="10" d="M879.5,814.5c6.4-21.1,17.3-44.1,35.6-63.5
				c25.5-27.1,61.6-42.5,107.3-46.2c7-0.6,14.3-0.9,21.8-0.9"/>
			<path fill="none" stroke="#FFFFFF" stroke-miterlimit="10" d="M1542,394c3.1,5.5,6.6,10.6,10.4,15.4
				c12.5,15.2,28.6,25.7,46.6,29.4c4.6,0.9,9.2,1.5,14,1.5c7.8,0,15.2-1.4,22.4-3.8c13.5-4.5,25.7-13,35.8-24.4
				c3.6-4.1,7-8.6,10-13.4"/>
			<path fill="none" stroke="#FFFFFF" stroke-miterlimit="10" d="M1681.1,265.6c-15.9-25.2-40.5-41.5-68.1-41.5
				c-47.8,0-86.7,48.5-86.7,108.1c0,6.6,0.6,13,1.5,19.3"/>
			<path fill="none" stroke="#FFFFFF" stroke-miterlimit="10" d="M1601.5,395.4c-18.6-7.7-32.7-33.5-32.7-63.2
				c0-29.8,14.2-55.6,32.8-63.2"/>
			<path fill="none" stroke="#FFFFFF" stroke-miterlimit="10" d="M1681.1,265.6c-12.6-13.6-29.1-21.9-47.2-21.9
				c-10.2,0-23.4,4.7-32.3,25.3c-1.4,3.4-2.8,7.1-4,11.3c-3.9,14-6,32.4-6,51.9c0,18.6,1.7,44.3,9.8,63.2
				c6.3,14.7,16.4,25.3,32.4,25.3c18.1,0,34.5-8.3,47.2-21.9c15.1-16.2,24.7-40,24.7-66.6S1696.2,281.8,1681.1,265.6z"/>
			<path fill="none" stroke="#FFFFFF" stroke-miterlimit="10" d="M1639.8,287.3c13,4.5,23.4,23.6,23.4,44.9
				c0,21.3-10.4,40.4-23.4,44.9C1632.5,358.7,1632.5,305.6,1639.8,287.3z"/>
			<path fill="none" stroke="#FFFFFF" stroke-miterlimit="10" d="M1542,394h5.6c11.8,0,21.3-9.5,21.3-21.3
				c0-11.8-9.5-21.3-21.3-21.3h-19.8h-180.3c-11.7,0-21.3,9.5-21.3,21.3c0,11.7,9.5,21.3,21.3,21.3H1542z"/>
			<path fill="none" stroke="#FFFFFF" stroke-miterlimit="10" d="M1675.3,1027.9c9.3,91,86.4,162.3,179.8,162.3
				c99.7,0,180.8-81.1,180.8-180.8c0-67.9-37.6-127.2-93.2-158.1c-26-14.5-55.8-22.7-87.6-22.7c-8.3,0-16.4,0.6-24.4,1.7
				c-80.3,10.9-144,74.7-154.7,155c-1.1,7.9-1.7,15.9-1.7,24.1C1674.4,1015.7,1674.7,1021.8,1675.3,1027.9z"/>
			<path fill="none" stroke="#FFFFFF" stroke-miterlimit="10" d="M1855.2,1147.7c-76.2,0-138.2-62-138.2-138.2
				c0-76.2,62-138.2,138.2-138.2c76.2,0,138.2,62,138.2,138.2C1993.4,1085.7,1931.4,1147.7,1855.2,1147.7z"/>
			<path fill="none" stroke="#FFFFFF" stroke-miterlimit="10" d="M1855.2,927.6c-45.1,0-81.8,36.7-81.8,81.8
				c0,45.1,36.7,81.8,81.8,81.8c45.1,0,81.8-36.7,81.8-81.8C1936.9,964.3,1900.3,927.6,1855.2,927.6z"/>
			<path fill="none" stroke="#FFFFFF" stroke-miterlimit="10" d="M1855.2,1048.7c-21.6,0-39.2-17.6-39.2-39.2
				c0-21.6,17.6-39.2,39.2-39.2c21.6,0,39.2,17.6,39.2,39.2C1894.4,1031.1,1876.8,1048.7,1855.2,1048.7z"/>
			<path fill="none" stroke="#FFFFFF" stroke-miterlimit="10" d="M1067.5,1027.9c-6.6,12.3-19.6,20.8-34.6,20.8
				c-15,0-28-8.4-34.6-20.8"/>
			<path fill="none" stroke="#FFFFFF" stroke-miterlimit="10" d="M953.3,1027.9c8.4,36.2,40.9,63.3,79.6,63.3
				c38.7,0,71.2-27.1,79.6-63.3"/>
			<path fill="none" stroke="#FFFFFF" stroke-miterlimit="10" d="M1272.4,1027.9c11.7,0,21.3-9.5,21.3-21.3l0-1.4
				c0-6.7-0.3-13.3-0.8-19.9c-10.2-129.2-118.5-231.3-250.3-231.3c-28.8,0-56.5,4.9-82.3,13.9c-29.9,10.4-57.2,26.3-80.8,46.5
				c-20.3,17.4-37.8,37.9-51.8,60.8c-23,37.9-36.2,82.3-36.2,129.8c0,0.5,0,1,0,1.4c0,11.7,9.5,21.3,21.3,21.3h50h42.9h47.7h45h69.2
				h45h67.1h42.9h42.5H1272.4z"/>
			<path fill="none" stroke="#FFFFFF" stroke-miterlimit="10" d="M835,985.3c10-105.7,99.3-188.7,207.6-188.7
				c108.3,0,197.6,83,207.6,188.7H835z"/>
			<path fill="none" stroke="#FFFFFF" stroke-miterlimit="10" d="M1044.2,704h113.3h173.9h42.7h9.9c30.4,0,55.2-24.7,55.2-55.2
				c0-30.4-24.7-55.2-55.2-55.2h-131.2H1193h-159.6H912c-23.7,0-43.9,15.1-51.7,36.1c-2.2,5.9-3.5,12.3-3.5,19
				c0,27.9,20.8,50.9,47.7,54.6c2.5,0.3,4.9,0.6,7.5,0.6H1044.2z"/>
			<path fill="none" stroke="#FFFFFF" stroke-miterlimit="10" d="M899.4,648.8c0-7,5.7-12.6,12.6-12.6h472c6.9,0,12.6,5.6,12.6,12.6
				c0,7-5.7,12.6-12.6,12.6h-21.2h-318.6H912C905.1,661.4,899.4,655.8,899.4,648.8z"/>
			<path fill="none" stroke="#FFFFFF" stroke-miterlimit="10" d="M558.7,447.6c-11.8,0-21.3,9.5-21.3,21.3
				c0,11.7,9.5,21.3,21.3,21.3h212.9c11.8,0,21.3-9.5,21.3-21.3c0-11.8-9.5-21.3-21.3-21.3H558.7z"/>
			<path fill="none" stroke="#FFFFFF" stroke-miterlimit="10" d="M813.1,768.8c0-11.8-9.5-21.3-21.3-21.3H578.9
				c-11.8,0-21.3,9.5-21.3,21.3c0,11.7,9.5,21.3,21.3,21.3h212.9C803.5,790.1,813.1,780.5,813.1,768.8z"/>
			<path fill="none" stroke="#FFFFFF" stroke-miterlimit="10" d="M805.4,302.5c0-11.8-9.5-21.3-21.3-21.3H325.7
				c-11.7,0-21.3,9.5-21.3,21.3s9.5,21.3,21.3,21.3h458.4C795.9,323.8,805.4,314.3,805.4,302.5z"/>
			<path fill="none" stroke="#FFFFFF" stroke-miterlimit="10" d="M783,606.5c0-11.8-9.5-21.3-21.3-21.3H205.7
				c-11.8,0-21.3,9.5-21.3,21.3s9.5,21.3,21.3,21.3h556.1C773.5,627.8,783,618.3,783,606.5z"/>
		</g>
	</g>
</g>
</svg>
