<?xml version="1.0" encoding="UTF-8"?>
<svg xmlns="http://www.w3.org/2000/svg" xmlns:xlink="http://www.w3.org/1999/xlink" width="px" height="px" viewBox="0 0 1529 1875" version="1.1">
<g id="surface1">
<path style=" stroke:none;fill-rule:nonzero;fill:rgb(60%,60%,60%);fill-opacity:1;" d="M 843.628906 163.199219 C 966.859375 0.828125 1138.179688 0.0390625 1138.179688 0.0390625 C 1138.179688 0.0390625 1163.664062 152.691406 1041.242188 299.746094 C 910.523438 456.769531 761.945312 431.074219 761.945312 431.074219 C 761.945312 431.074219 734.046875 307.582031 843.628906 163.199219 Z M 777.617188 538.007812 C 841.015625 538.007812 958.675781 450.890625 1111.824219 450.890625 C 1375.449219 450.890625 1479.15625 638.414062 1479.15625 638.414062 C 1479.15625 638.414062 1276.320312 742.089844 1276.320312 993.644531 C 1276.320312 1277.417969 1529 1375.21875 1529 1375.21875 C 1529 1375.21875 1352.367188 1872.207031 1113.789062 1872.207031 C 1004.210938 1872.207031 919.015625 1798.390625 803.558594 1798.390625 C 685.898438 1798.390625 569.140625 1874.960938 493.09375 1874.960938 C 275.234375 1874.96875 0 1403.519531 0 1024.554688 C 0 651.707031 232.964844 456.117188 451.480469 456.117188 C 593.53125 456.117188 703.765625 538.007812 777.617188 538.007812 Z M 777.617188 538.007812 "/>
</g>
</svg>
