<?xml version="1.0" encoding="utf-8"?>
<!-- Generator: Adobe Illustrator 18.0.0, SVG Export Plug-In . SVG Version: 6.00 Build 0)  -->
<!DOCTYPE svg PUBLIC "-//W3C//DTD SVG 1.1//EN" "http://www.w3.org/Graphics/SVG/1.1/DTD/svg11.dtd">
<svg version="1.1" xmlns="http://www.w3.org/2000/svg" xmlns:xlink="http://www.w3.org/1999/xlink" x="0px" y="0px"
	 viewBox="0 0 492 492" enable-background="new 0 0 492 492" xml:space="preserve">
<g id="Master_Layer_6">
</g>
<g id="Layer_1">
	<g>
		<g id="XMLID_1_">
			<g>
				<path fill="#FFFFFF" d="M426.3,192c3.1,0.9,4.8,4,4,7.1c-0.1,0.2-0.1,0.5-0.2,0.7c-0.5,1.1-1.4,2.1-2.5,2.8
					c-2.8,1.5-6.3,0.5-7.8-2.3l-1.2-2.2c0.2-0.7,0.5-1.4,0.7-2.1C420.1,192.9,423.3,191.2,426.3,192z"/>
				<path fill="#FFFFFF" d="M383,109.9l46.9,84.9c0.9,1.6,0.9,3.5,0.2,5c0.1-0.2,0.1-0.5,0.2-0.7c0.9-3.1-0.9-6.2-4-7.1
					c-3.1-0.9-6.2,0.9-7.1,4c-0.2,0.7-0.4,1.4-0.7,2.1l-44-79.7h-20.9c3.2,0,5.8-2.6,5.8-5.8v-5.8h18.5
					C379.9,106.9,381.9,107.9,383,109.9l-5,2.8L383,109.9z"/>
				<path fill="#FFFFFF" d="M386.3,217.8v-20.1c1.5,4.3,3.8,8,6.6,10.6c2.8,2.6,6.1,4.1,9.6,4.1c3.5,0,6.8-1.5,9.6-4.1
					c2.7-2.5,4.9-6,6.4-10.1l1.2,2.2c1.5,2.8,5,3.8,7.8,2.3c1.2-0.6,2-1.6,2.5-2.8c-2,6.8-5.6,12.7-10.2,16.9
					c-4.9,4.5-10.9,7.2-17.4,7.2C396.5,223.9,390.9,221.6,386.3,217.8z"/>
				<path fill="#FFFFFF" d="M386.3,217.8v162.7c0,8.7-3.6,16.6-9.3,22.4c-5.7,5.7-13.7,9.3-22.4,9.3H236.9c-3.2,0-5.8-2.6-5.8-5.8
					V302.9c0-1.1-0.4-2.1-1.2-2.8c-0.7-0.7-1.7-1.2-2.8-1.2h-59.1c-1.1,0-2.1,0.5-2.8,1.2c-0.7,0.7-1.2,1.7-1.2,2.8v103.6
					c0,3.2-2.6,5.8-5.8,5.8h-20.4c-8.7,0-16.6-3.6-22.4-9.3c-5.7-5.7-9.3-13.7-9.3-22.4V217.8c0.4-0.3,0.8-0.7,1.2-1
					c1.8-1.7,3.4-3.6,4.9-5.7c1.5,2.1,3.1,4.1,4.9,5.7c0.2,0.2,0.3,0.3,0.5,0.5v163.3c0,5.5,2.3,10.6,5.9,14.2
					c3.7,3.7,8.7,5.9,14.2,5.9h14.7v-97.8c0-4.3,1.7-8.2,4.5-11c2.8-2.8,6.7-4.6,11-4.6h59.1c4.3,0,8.2,1.8,11,4.6
					c2.8,2.8,4.6,6.7,4.6,11v97.8h111.9c5.5,0,10.6-2.3,14.2-5.9c3.7-3.7,5.9-8.7,5.9-14.2V217.2c0.2-0.2,0.3-0.3,0.5-0.5
					c1.8-1.7,3.4-3.6,4.9-5.7c1.5,2.1,3.1,4.1,4.9,5.7C385.5,217.1,385.9,217.4,386.3,217.8z"/>
				<path fill="#FFFFFF" d="M381.7,192c3,0.9,4.8,4,4,7.1c-1.2,4.4-3.1,8.4-5.5,11.9c-2.3-3.4-4.2-7.4-5.4-11.7v-1.8
					c0-3.1,2.4-5.6,5.5-5.8c0,0,0,0,0.1,0c0.1,0,0.2,0,0.3,0c0.1,0,0.2,0,0.4,0C381.2,191.9,381.4,192,381.7,192z"/>
				<path fill="#FFFFFF" d="M385.7,199.1c0.9-3.1-0.9-6.2-4-7.1c-0.3-0.1-0.5-0.1-0.8-0.2c2.2,0.3,4.2,1.8,4.9,4.1
					c0.2,0.6,0.3,1.1,0.5,1.7v20.1c-0.4-0.3-0.8-0.7-1.2-1c-1.8-1.7-3.4-3.6-4.9-5.7C382.6,207.6,384.4,203.5,385.7,199.1z"/>
				<path d="M385.8,196c-0.6-2.3-2.6-3.9-4.9-4.1c-0.1,0-0.2,0-0.4,0c-0.1,0-0.2,0-0.3,0c0.1,0,0.1,0,0.2,0c3.2,0,5.8,2.6,5.8,5.8
					v0.1C386.1,197.1,385.9,196.6,385.8,196z"/>
				<path d="M380.9,191.9c-0.1,0-0.2,0-0.4,0C380.7,191.8,380.8,191.8,380.9,191.9z"/>
				<path d="M379.8,191.8c-0.1,0-0.2,0-0.4,0C379.6,191.8,379.7,191.8,379.8,191.8z"/>
				<path fill="#FFFFFF" d="M374.8,199.3c1.2,4.3,3.1,8.3,5.4,11.7c-1.5,2.1-3.1,4.1-4.9,5.7c-0.2,0.2-0.3,0.3-0.5,0.5V199.3z"/>
				<path d="M380.2,191.8c-3.1,0.1-5.5,2.7-5.5,5.8v1.8c0-0.1,0-0.1-0.1-0.2c-0.9-3.1,0.9-6.2,4-7.1c0.3-0.1,0.5-0.1,0.8-0.2
					c0.1,0,0.2,0,0.4,0C380,191.8,380.1,191.8,380.2,191.8z"/>
				<path fill="#FFFFFF" d="M359.4,106.9v5.8c0,3.2-2.6,5.8-5.8,5.8H138.9c-3.2,0-5.8-2.6-5.8-5.8v-5.8h11.5h203.3H359.4z"/>
				<path fill="#FFFFFF" d="M359.4,87.1v19.8h-11.5V92.8H144.6v14.1h-11.5V87.1c0-3.2,2.6-5.8,5.8-5.8h214.8
					C356.8,81.3,359.4,83.9,359.4,87.1z"/>
				<path fill="#FFFFFF" d="M374.7,199.1c0,0.1,0,0.1,0.1,0.2v17.9c-4.8,4.2-10.6,6.7-16.9,6.7c-6.5,0-12.5-2.6-17.4-7.2
					c-1.8-1.7-3.4-3.6-4.9-5.7c2.4-3.5,4.3-7.5,5.5-11.9c0.9-3.1-0.9-6.2-4-7.1c-0.3-0.1-0.5-0.1-0.8-0.2c2.3,0.3,4.2,1.8,4.9,4.1
					c1.4,5.1,3.9,9.3,7.1,12.3c2.8,2.6,6.1,4.1,9.6,4.1c3.5,0,6.8-1.5,9.6-4.1c3.2-2.9,5.7-7.2,7.1-12.3c0.6-2.3,2.6-3.9,4.9-4.1
					c-0.3,0-0.5,0.1-0.8,0.2C375.6,192.9,373.8,196.1,374.7,199.1z"/>
				<path fill="#FFFFFF" d="M341.2,302.9V343c0,4.3-1.8,8.2-4.6,11s-6.7,4.6-11,4.6h-40.2c-4.3,0-8.2-1.8-11-4.6s-4.5-6.7-4.5-11
					v-40.2c0-4.3,1.7-8.2,4.5-11c2.8-2.8,6.7-4.6,11-4.6h40.2c4.3,0,8.2,1.8,11,4.6C339.5,294.7,341.2,298.6,341.2,302.9z
					 M329.7,343v-40.2c0-1.1-0.5-2.1-1.2-2.8c-0.7-0.7-1.7-1.2-2.8-1.2h-40.2c-1.1,0-2.1,0.5-2.8,1.2c-0.7,0.7-1.2,1.7-1.2,2.8V343
					c0,1.1,0.5,2.1,1.2,2.8c0.7,0.7,1.7,1.2,2.8,1.2h40.2c1.1,0,2.1-0.4,2.8-1.2C329.3,345.1,329.7,344.1,329.7,343z"/>
				<path fill="#FFFFFF" d="M337,192c3.1,0.9,4.8,4,4,7.1c-1.2,4.4-3.1,8.4-5.5,11.9c-2.4-3.5-4.2-7.5-5.5-11.9
					c-0.9-3.1,0.9-6.2,4-7.1c0.3-0.1,0.5-0.1,0.8-0.2c0.1,0,0.3,0,0.4,0c0.2,0,0.5,0,0.7,0c0.1,0,0.3,0,0.4,0
					C336.5,191.9,336.8,192,337,192z"/>
				<path d="M336.3,191.9c-0.1,0-0.3,0-0.4,0C336,191.8,336.1,191.8,336.3,191.9z"/>
				<path d="M335.2,191.8c-0.1,0-0.2,0-0.4,0C334.9,191.8,335.1,191.8,335.2,191.8z"/>
				<path fill="#FFFFFF" d="M296.4,199.1c0.8-3.1-0.9-6.2-4-7.1c-0.3-0.1-0.5-0.1-0.8-0.2c2.3,0.3,4.2,1.8,4.9,4.1
					c1.4,5.1,3.9,9.3,7.1,12.3c2.8,2.6,6.1,4.1,9.6,4.1c3.5,0,6.8-1.5,9.6-4.1c3.2-2.9,5.7-7.2,7.1-12.3c0.6-2.3,2.6-3.9,4.9-4.1
					c-0.3,0-0.5,0.1-0.8,0.2c-3.1,0.9-4.8,4-4,7.1c1.2,4.4,3.1,8.4,5.5,11.9c-1.5,2.1-3.1,4.1-4.9,5.7c-4.9,4.5-10.9,7.2-17.4,7.2
					c-6.5,0-12.5-2.6-17.4-7.2c-1.8-1.7-3.4-3.6-4.9-5.7C293.3,207.5,295.1,203.5,296.4,199.1z"/>
				<path fill="#FFFFFF" d="M292.4,192c3.1,0.9,4.8,4,4,7.1c-1.2,4.4-3.1,8.4-5.5,11.9c-2.4-3.5-4.2-7.5-5.5-11.9
					c-0.9-3.1,0.9-6.2,4-7.1c0.3-0.1,0.5-0.1,0.8-0.2c0.1,0,0.3,0,0.4,0c0.2,0,0.5,0,0.7,0c0.1,0,0.3,0,0.4,0
					C291.9,191.9,292.1,192,292.4,192z"/>
				<path d="M291.6,191.9c-0.1,0-0.3,0-0.4,0C291.4,191.8,291.5,191.8,291.6,191.9z"/>
				<path d="M290.5,191.8c-0.1,0-0.2,0-0.4,0C290.3,191.8,290.4,191.8,290.5,191.8z"/>
				<path fill="#FFFFFF" d="M246.3,211c2.4-3.5,4.2-7.5,5.5-11.9c0.9-3.1-0.9-6.2-4-7.1c-0.3-0.1-0.5-0.1-0.8-0.2
					c2.3,0.3,4.2,1.8,4.9,4.1c1.4,5.1,3.9,9.3,7.1,12.3c2.8,2.6,6.1,4.1,9.6,4.1c3.5,0,6.8-1.5,9.6-4.1c3.2-2.9,5.7-7.2,7.1-12.3
					c0.6-2.3,2.6-3.9,4.9-4.1c-0.3,0-0.5,0.1-0.8,0.2c-3.1,0.9-4.8,4-4,7.1c1.2,4.4,3.1,8.4,5.5,11.9c-1.4,2.1-3.1,4.1-4.9,5.7
					c-4.9,4.5-10.9,7.2-17.4,7.2c-6.5,0-12.5-2.6-17.4-7.2C249.4,215.1,247.7,213.1,246.3,211z"/>
				<path fill="#FFFFFF" d="M247.8,192c3.1,0.9,4.8,4,4,7.1c-1.2,4.4-3.1,8.4-5.5,11.9c-2.4-3.5-4.2-7.5-5.5-11.9
					c-0.9-3.1,0.9-6.2,4-7.1c0.3-0.1,0.5-0.1,0.8-0.2c0.1,0,0.3,0,0.4,0c0.2,0,0.5,0,0.7,0c0.1,0,0.3,0,0.4,0
					C247.2,191.9,247.5,192,247.8,192z"/>
				<path d="M247,191.9c-0.1,0-0.3,0-0.4,0C246.7,191.8,246.9,191.8,247,191.9z"/>
				<path d="M245.9,191.8c-0.1,0-0.3,0-0.4,0C245.7,191.8,245.8,191.8,245.9,191.8z"/>
				<path fill="#FFFFFF" d="M207.1,199.1c0.9-3.1-0.9-6.2-4-7.1c-0.3-0.1-0.5-0.1-0.8-0.2c2.3,0.3,4.2,1.8,4.9,4.1
					c1.4,5.1,3.9,9.3,7.1,12.3c2.8,2.6,6.1,4.1,9.6,4.1s6.8-1.5,9.6-4.1c3.2-2.9,5.7-7.2,7.1-12.3c0.7-2.3,2.6-3.9,4.9-4.1
					c-0.3,0-0.5,0.1-0.8,0.2c-3.1,0.9-4.8,4-4,7.1c1.2,4.4,3.1,8.4,5.5,11.9c-1.4,2.1-3.1,4.1-4.9,5.7c-4.9,4.5-10.9,7.2-17.4,7.2
					c-6.5,0-12.5-2.6-17.4-7.2c-1.8-1.7-3.4-3.6-4.9-5.7C204,207.5,205.9,203.5,207.1,199.1z"/>
				<path fill="#FFFFFF" d="M203.1,192c3.1,0.9,4.8,4,4,7.1c-1.2,4.4-3.1,8.4-5.5,11.9c-2.4-3.5-4.2-7.5-5.5-11.9
					c-0.9-3.1,0.9-6.2,4-7.1c0.3-0.1,0.5-0.1,0.8-0.2c0.1,0,0.3,0,0.4,0c0.2,0,0.5,0,0.7,0c0.1,0,0.2,0,0.4,0
					C202.6,191.9,202.9,192,203.1,192z"/>
				<path d="M202.3,191.9c-0.1,0-0.3,0-0.4,0C202.1,191.8,202.2,191.8,202.3,191.9z"/>
				<path d="M201.3,191.8c-0.1,0-0.3,0-0.4,0C201,191.8,201.1,191.8,201.3,191.8z"/>
				<path fill="#FFFFFF" d="M162.5,199.1c0.9-3.1-0.9-6.2-4-7.1c-0.3-0.1-0.5-0.1-0.8-0.2c2.2,0.3,4.2,1.8,4.9,4.1
					c1.4,5.1,3.9,9.3,7.1,12.3c2.8,2.6,6.1,4.1,9.6,4.1c3.5,0,6.8-1.5,9.6-4.1c3.2-2.9,5.7-7.2,7.1-12.3c0.6-2.3,2.6-3.9,4.9-4.1
					c-0.3,0-0.5,0.1-0.8,0.2c-3.1,0.9-4.8,4-4,7.1c1.2,4.4,3.1,8.4,5.5,11.9c-1.4,2.1-3.1,4.1-4.9,5.7c-4.9,4.5-10.9,7.2-17.4,7.2
					c-6.5,0-12.5-2.6-17.4-7.2c-1.8-1.7-3.5-3.6-4.9-5.7C159.4,207.5,161.2,203.5,162.5,199.1z"/>
				<path fill="#FFFFFF" d="M158.5,192c3.1,0.9,4.8,4,4,7.1c-1.2,4.4-3.1,8.4-5.5,11.9c-2.4-3.5-4.3-7.5-5.5-11.9
					c-0.9-3.1,0.9-6.2,4-7.1c0.3-0.1,0.5-0.1,0.8-0.2c0.1,0,0.3,0,0.4,0c0.2,0,0.5,0,0.7,0c0.1,0,0.2,0,0.4,0
					C158,191.9,158.2,192,158.5,192z"/>
				<path d="M157.7,191.9c-0.1,0-0.3,0-0.4,0C157.4,191.8,157.6,191.8,157.7,191.9z"/>
				<path d="M156.6,191.8c-0.1,0-0.3,0-0.4,0C156.4,191.8,156.5,191.8,156.6,191.8z"/>
				<path fill="#FFFFFF" d="M144.3,208.3c3.2-2.9,5.7-7.2,7.1-12.3c0.6-2.3,2.6-3.9,4.9-4.1c-0.3,0-0.5,0.1-0.8,0.2
					c-3.1,0.9-4.8,4-4,7.1c1.2,4.4,3.1,8.4,5.5,11.9c-1.4,2.1-3.1,4.1-4.9,5.7c-4.9,4.5-10.9,7.2-17.4,7.2c-6.3,0-12.1-2.5-16.9-6.7
					v-17.9c0-0.1,0-0.1,0.1-0.2c0.9-3.1-0.9-6.2-4-7.1c-0.3-0.1-0.5-0.1-0.8-0.2c2.2,0.3,4.2,1.8,4.9,4.1c1.4,5.1,3.9,9.3,7.1,12.3
					c2.8,2.6,6.1,4.1,9.6,4.1C138.2,212.4,141.5,210.9,144.3,208.3z"/>
				<path fill="#FFFFFF" d="M117.8,199.3v17.9c-0.2-0.2-0.3-0.3-0.5-0.5c-1.8-1.7-3.4-3.6-4.9-5.7
					C114.7,207.6,116.5,203.6,117.8,199.3z"/>
				<path fill="#FFFFFF" d="M117.8,197.6v1.8c-1.2,4.3-3.1,8.3-5.4,11.7c-2.4-3.5-4.3-7.5-5.5-11.9c-0.8-3.1,0.9-6.2,4-7.1
					c0.3-0.1,0.5-0.1,0.8-0.2c0.1,0,0.3,0,0.4,0c0.1,0,0.2,0,0.2,0c0,0,0,0,0,0C115.3,191.9,117.8,194.5,117.8,197.6z"/>
				<path d="M117.8,197.6c0-3.1-2.4-5.6-5.5-5.8c0.1,0,0.3,0,0.4,0c0.1,0,0.2,0,0.4,0c0.3,0,0.5,0.1,0.8,0.2c3.1,0.9,4.8,4,4,7.1
					c0,0.1,0,0.1-0.1,0.2V197.6z"/>
				<path d="M113.1,191.9c-0.1,0-0.3,0-0.4,0C112.8,191.8,112.9,191.8,113.1,191.9z"/>
				<path d="M112,191.8c-0.1,0-0.3,0-0.4,0C111.7,191.8,111.9,191.8,112,191.8z"/>
				<path fill="#FFFFFF" d="M106.2,217.8v-20.1c0.2-0.5,0.3-1.1,0.5-1.7c0.7-2.3,2.6-3.9,4.9-4.1c-0.3,0-0.5,0.1-0.8,0.2
					c-3.1,0.9-4.8,4-4,7.1c1.2,4.4,3.1,8.4,5.5,11.9c-1.5,2.1-3.1,4.1-4.9,5.7C107.1,217.1,106.7,217.4,106.2,217.8z"/>
				<path d="M106.8,196c-0.2,0.6-0.3,1.1-0.5,1.7v-0.1c0-3.2,2.6-5.8,5.8-5.8c0.1,0,0.2,0,0.2,0c-0.1,0-0.2,0-0.2,0
					c-0.1,0-0.3,0-0.4,0C109.4,192.1,107.4,193.7,106.8,196z"/>
				<path fill="#FFFFFF" d="M99.7,208.3c2.8-2.6,5.1-6.3,6.6-10.6v20.1c-4.7,3.9-10.2,6.1-16.2,6.1c-6.5,0-12.5-2.6-17.4-7.2
					c-4.6-4.2-8.1-10.1-10.2-16.9c0.5,1.1,1.4,2.1,2.5,2.8c2.8,1.5,6.3,0.5,7.8-2.3l1.2-2.2c1.5,4.1,3.7,7.6,6.4,10.1
					c2.8,2.6,6.1,4.1,9.6,4.1C93.5,212.4,96.9,210.9,99.7,208.3z"/>
				<path fill="#FFFFFF" d="M73.9,198.1l-1.2,2.2c-1.5,2.8-5,3.8-7.8,2.3c-1.2-0.6-2-1.6-2.5-2.8c-0.1-0.2-0.1-0.5-0.2-0.7
					c-0.9-3.1,0.9-6.2,4-7.1c3.1-0.9,6.2,0.9,7.1,4C73.5,196.7,73.7,197.4,73.9,198.1z"/>
				<path fill="#FFFFFF" d="M62.4,199.8c-0.7-1.6-0.6-3.4,0.2-5l46.7-84.6c0.9-1.9,2.9-3.3,5.2-3.3h18.6v5.8c0,3.2,2.6,5.8,5.8,5.8
					h-20.9l-44,79.7c-0.2-0.7-0.5-1.4-0.7-2.1c-0.9-3.1-4-4.8-7.1-4c-3.1,0.9-4.8,4-4,7.1C62.3,199.4,62.3,199.6,62.4,199.8z"/>
			</g>
			<g>
			</g>
		</g>
	</g>
</g>
</svg>
